<?xml version="1.0" encoding="UTF-8" standalone="no"?>
<!DOCTYPE svg PUBLIC "-//W3C//DTD SVG 1.1//EN" "http://www.w3.org/Graphics/SVG/1.1/DTD/svg11.dtd">
<svg version="1.1" xmlns="http://www.w3.org/2000/svg" xmlns:xlink="http://www.w3.org/1999/xlink" preserveAspectRatio="xMidYMid meet" viewBox="0 0 640 640" width="640" height="640"><defs><path d="M355.41 1.61C354.59 2.01 352.83 2.34 351.56 2.29C350.13 2.23 347.37 2.91 344.45 3.92C341.86 4.88 338.28 5.95 336.47 6.23C332.94 6.91 330.74 7.41 325.23 8.93C322.09 9.72 321.26 10.29 318.56 13.16C316.91 14.96 315.15 16.43 314.65 16.43C312.83 16.43 312.5 17.78 313.22 21.95C313.83 25.72 313.83 26.11 312.61 28.71C311.57 30.9 311.46 31.69 311.95 32.65C312.28 33.27 312.56 35.58 312.56 37.66C312.56 39.92 312.83 41.83 313.22 42.22C313.72 42.73 313.72 43.07 313.22 43.58C312.83 43.97 312.56 45.15 312.56 46.22C312.56 47.29 312.28 49.66 311.9 51.52C311.29 54.62 311.29 54.9 312.28 55.63C313.27 56.42 313.27 56.42 312.28 57.21C311.57 57.72 311.18 58.9 311.02 61.15C310.8 63.97 310.91 64.48 312.06 65.6C313.6 67.12 315.86 69.83 315.86 70.16C315.86 70.28 315.37 70.28 314.76 70.11C314.16 69.94 313.66 69.49 313.66 69.04C313.66 67.97 312.83 67.57 311.29 67.97C309.86 68.36 308.15 71.23 307.33 74.67C306.94 76.36 306.28 77.26 304.96 78.11C303.91 78.73 301.32 80.81 299.23 82.78C292.62 88.81 286.72 92.25 284.02 91.63C283.31 91.46 282.21 91.68 281.55 92.19C280.88 92.64 279.95 93.03 279.45 93.03C278.96 93.03 276.97 93.54 275.05 94.16C273.12 94.78 271.19 95.18 270.75 95.01C269.54 94.5 264.03 96.36 262.27 97.88C261.38 98.61 260.5 99.23 260.23 99.23C260.01 99.23 258.74 100.13 257.47 101.2C256.21 102.27 254.83 103.17 254.44 103.17C254.06 103.17 253.12 103.68 252.35 104.3C251.58 104.92 250.64 105.43 250.31 105.43C249.93 105.43 248.44 105.99 246.95 106.67C244.03 108.07 243.92 108.19 240.78 116.41C238.41 122.66 238.3 123.28 239.41 125.48C240.51 127.51 243.76 128.52 249.93 128.58C254.61 128.64 253.51 129.54 248.66 129.65C246.95 129.65 245.19 130.04 244.58 130.49C243.98 130.94 242.99 131.34 242.32 131.34C241.66 131.34 240.12 132.52 238.58 134.16C235.6 137.37 231.53 139.51 227.01 140.24C223.98 140.75 223.71 140.69 219.74 138.61C217.43 137.37 214.84 136.41 213.9 136.41C212.96 136.41 211.75 136.13 211.15 135.79C210.43 135.39 209.22 135.39 207.73 135.73C203.71 136.58 196.05 135.51 192.09 133.48C189 131.96 188.29 131.79 185.48 132.13C183.49 132.35 181.9 132.92 181.18 133.59C180.52 134.21 179.58 134.72 179.03 134.72C178.21 134.72 178.1 134.38 178.32 133.09C178.59 131.85 178.32 130.94 177.32 129.54C174.29 125.26 171.54 120.86 171.54 120.19C171.54 119.79 172.15 119.23 172.92 118.95C173.69 118.66 174.29 118.05 174.29 117.59C174.29 117.2 174.68 116.69 175.12 116.47C176.22 116.07 176.17 115.12 174.85 112.47C174.24 111.23 173.74 109.99 173.74 109.65C173.74 109.31 172.31 108.75 170.6 108.36C166.91 107.57 163.72 108.3 161.9 110.27C160.69 111.62 156.28 112.92 155.79 112.13C155.62 111.85 155.02 111.62 154.46 111.62C153.91 111.62 153.36 111.4 153.25 111.06C153.2 110.78 151.71 110.27 150.11 109.93C148.46 109.6 146.53 108.86 145.87 108.19C145.21 107.57 144.33 107.12 143.94 107.17C143.5 107.29 142.62 107.06 142.02 106.67C140.14 105.65 138.99 106.89 139.37 109.43C139.65 111.23 139.98 111.57 141.9 112.13C144.16 112.86 144.27 112.98 144.77 116.19C145.04 117.88 144.88 118.55 143.72 119.96C142.07 121.99 141.96 123.23 143.39 123.96C144.38 124.52 144.66 125.37 145.6 131.17C146.15 134.49 146.59 135.45 147.36 134.94C147.69 134.78 148.29 135.06 148.74 135.62C151.1 138.77 153.36 142.61 153.69 144.07C153.91 144.97 154.57 146.27 155.24 147C156.28 148.18 156.39 148.91 156.23 153.98C156.12 159.5 156.83 163.45 157.93 163.45C158.76 163.45 157.82 173.14 156.89 174.21C156.17 174.99 156.17 175.22 156.94 175.84C157.49 176.29 157.77 177.53 157.77 179.44C157.77 182.6 158.1 183.33 159.59 183.89C160.08 184.06 160.52 184.8 160.52 185.42C160.52 186.15 161.18 186.99 162.18 187.56C163.06 188.06 163.83 188.85 163.83 189.19C163.83 190.15 161.46 190.71 159.26 190.26C158.04 190.03 156.78 190.26 155.51 190.88C152.81 192.29 147.69 192.57 145.93 191.39C144.38 190.32 144.16 188.96 145.43 188.01C146.7 187.05 145.54 184.01 144.16 184.74C143.61 185.02 142.02 185.42 140.64 185.64C138.71 185.92 137.83 186.43 136.95 187.67C136.29 188.57 135.74 189.53 135.74 189.81C135.74 190.09 134.52 190.2 133.04 190.03C130.72 189.81 130.23 189.98 129.73 190.94C128.57 193.13 125.82 192.74 125.82 190.37C125.82 189.75 125.43 189.36 124.72 189.36C124.11 189.36 123.62 189.13 123.62 188.8C123.62 188.51 123.18 187.73 122.68 187.11C121.74 185.98 121.74 185.98 120.2 187.5C119.04 188.63 118.16 188.96 116.46 188.91C114.75 188.85 114.14 189.02 113.87 189.81C113.37 191.27 111.99 192.74 111.06 192.74C110.62 192.74 109.29 193.87 108.08 195.27C106.87 196.68 105.49 197.81 104.94 197.81C104.45 197.81 103.68 198.15 103.29 198.48C102.74 199.1 102.63 198.99 102.68 198.09C102.9 196.06 102.68 195.56 101.58 195.56C101.03 195.56 100.32 195.22 100.1 194.82C99.87 194.37 99.21 193.92 98.72 193.7C98 193.47 97.73 192.74 97.73 191.33C97.73 189.42 96.24 187.11 94.97 187.11C94.7 187.11 94.42 186.71 94.42 186.26C94.42 185.75 93.82 185.13 93.04 184.85C91.89 184.4 91.72 184.06 92 182.88C92.44 181.02 91.39 179.67 89.79 180.12C89.02 180.29 88.25 180.06 87.87 179.56C87.37 178.94 87.32 178.66 87.76 178.66C88.09 178.66 88.36 178.04 88.36 177.25C88.36 176.01 88.14 175.84 86.54 175.84C84.73 175.84 84.73 175.78 84.89 173.59C85 172.35 84.95 171.33 84.84 171.33C84.67 171.33 83.4 171.95 81.92 172.69C79.6 173.92 79.16 173.98 78.39 173.25C77.24 172.18 76.41 172.23 75.8 173.42C75.47 173.98 74.59 174.32 73.6 174.32C72.66 174.32 71.78 174.66 71.62 175.11C71.45 175.5 70.9 175.84 70.4 175.84C69.91 175.84 69.14 176.29 68.75 176.8C68.31 177.47 68.04 177.53 67.98 177.08C67.98 175.56 62.25 174.15 61.7 175.56C61.54 176.01 60.49 176.8 59.33 177.25C57.57 178.04 57.35 178.26 58.07 178.83C58.56 179.22 58.84 179.95 58.73 180.46C58.62 181.08 58.89 181.47 59.39 181.47C60.65 181.47 61.04 182.6 59.99 183.39C59.33 183.89 59.11 184.57 59.28 185.58C59.61 187.39 59.55 187.39 57.79 186.2C57.02 185.7 56.08 185.42 55.64 185.58C55.26 185.75 54.32 185.53 53.66 185.02C53 184.57 51.9 184.29 51.12 184.46C50.41 184.57 49.64 184.46 49.47 184.23C48.59 182.77 45.4 185.7 45.34 188.06C45.34 189.64 45.34 189.64 44.68 188.35C44.29 187.44 43.74 187.11 43.08 187.27C42.26 187.5 42.04 187.11 41.76 185.36C41.43 183.16 41.32 183.11 39.67 183.44C38.73 183.67 37.35 184.23 36.64 184.68C35.92 185.13 34.05 185.64 32.51 185.75C30.3 185.87 29.48 186.2 28.59 187.39C27.49 188.74 25.01 189.36 25.01 188.23C25.01 187.89 24.35 187.39 23.58 187.05C22.48 186.66 21.82 186.71 20.83 187.39C20.11 187.84 19.23 188.23 18.84 188.23C18.4 188.23 17.63 188.74 17.14 189.42C16.37 190.26 15.76 190.49 14.55 190.2C12.73 189.81 10.69 190.71 10.69 191.95C10.69 192.4 10.42 192.63 10.09 192.46C9.76 192.23 9.37 192.57 9.2 193.25C8.98 194.09 8.32 194.54 6.73 194.77C3.48 195.33 0.72 198.43 0.78 201.41C0.83 202.71 0.67 204.4 0.45 205.24C0.28 206.09 0.39 207.55 0.67 208.51C1 209.47 1.05 210.09 0.78 209.92C-0.16 209.3 -0.27 210.65 0.56 212.4C1.22 213.81 1.77 214.14 3.09 214.14C4.03 214.14 5.07 213.75 5.4 213.3C5.9 212.57 6.29 212.57 7.94 213.13C8.98 213.52 9.92 213.86 9.98 213.86C10.03 213.86 10.2 214.54 10.42 215.44C10.75 216.68 10.64 216.9 9.92 216.62C9.32 216.4 8.87 216.74 8.49 217.81C7.66 220 7.77 220.4 9.15 220.06C10.14 219.78 10.58 220.06 11.13 221.41C11.52 222.31 11.79 223.78 11.68 224.62C11.41 227.04 12.62 226.76 14.33 224C15.87 221.47 15.98 221.41 18.13 221.75C19.34 221.92 20.5 222.48 20.77 222.88C20.99 223.33 21.82 223.72 22.54 223.72C23.91 223.72 25.01 225.92 25.01 228.79C25.01 230.87 24.57 231.16 22.81 230.2C21.43 229.47 20.55 229.58 13.17 231.32C8.71 232.4 4.8 233.18 4.47 233.13C4.14 233.07 3.86 233.3 3.81 233.69C3.81 234.03 3.64 234.54 3.42 234.76C2.54 235.61 3.04 236.06 5.35 236.68C6.62 237.01 8.43 237.63 9.37 238.08C10.36 238.48 11.63 238.7 12.29 238.54C14.93 237.86 19.89 243.04 21.16 248C21.65 249.8 21.65 250.48 21.16 250.76C20.77 250.98 20.61 251.77 20.72 252.51C20.83 253.63 21.32 253.91 23.64 254.31C29.04 255.15 31.62 254.19 31.62 251.38C31.62 250.42 33.66 249.07 35.15 249.07C35.59 249.07 36.2 249.41 36.53 249.86C36.97 250.36 37.74 250.48 38.95 250.25C40.33 249.97 40.77 249.58 40.88 248.34C41.04 246.98 42.09 246.08 42.09 247.27C42.09 247.55 43.03 249.24 44.18 251.1C46.28 254.36 46.33 254.42 49.09 254.59C50.74 254.7 52.06 254.48 52.28 254.14C52.56 253.69 53.05 253.86 53.93 254.7C54.6 255.32 55.37 255.83 55.64 255.77C57.02 255.43 63.02 257.18 63.3 258.03C63.46 258.53 64.18 259.6 64.84 260.45C65.94 261.8 66.27 261.91 68.15 261.52C69.3 261.24 70.18 261.24 70.18 261.52C70.18 261.8 70.9 262.02 71.78 262.02C73.49 262.02 75.64 263.6 78.83 267.09C80.49 268.95 80.6 269.29 80.49 273.01C80.43 275.15 80.6 277.29 80.82 277.63C81.26 278.36 85.06 278.64 85.06 277.97C85.06 277.74 84.56 277.07 83.96 276.39C83.35 275.77 82.69 274.42 82.52 273.46C82.19 271.71 82.25 271.66 84.56 271.38C87.65 271.04 89.46 271.15 89.46 271.71C89.46 271.94 89.74 272.16 90.12 272.16C91.5 272.16 94.97 274.14 95.3 275.09C95.8 276.84 97.62 277.46 99.99 276.73C101.14 276.39 102.74 276.22 103.51 276.45C104.39 276.67 104.89 276.56 104.89 276.16C104.89 275.77 105.38 275.66 106.21 275.88C106.93 276.05 107.7 275.94 107.92 275.6C108.08 275.26 108.85 275.15 109.57 275.32C110.23 275.49 111 275.38 111.17 275.04C111.83 273.97 112.76 274.36 112.43 275.54C112.27 276.16 112.38 276.84 112.65 277.01C112.93 277.18 112.99 277.91 112.82 278.7C112.54 279.77 112.76 280.16 113.7 280.5C114.86 280.95 114.8 281.06 112.65 282.47C111.44 283.32 110.18 283.99 109.85 283.99C109.57 283.99 109.29 284.39 109.29 284.84C109.29 285.29 109.51 285.68 109.79 285.68C110.67 285.68 112.05 287.37 112.05 288.5C112.05 289.06 111.55 289.63 110.95 289.8C109.07 290.3 109.74 291.2 113.04 292.78C114.75 293.63 116.35 294.41 116.62 294.53C116.84 294.64 117.23 294.25 117.45 293.57C117.89 292.39 117.94 292.44 120.2 294.13C123.01 296.16 123.73 296.22 126.04 294.41C128.35 292.61 128.79 292.67 128.35 294.47C128.13 295.26 128.24 296.27 128.57 296.67C129.46 297.74 128.68 300.33 127.47 300.33C126.98 300.33 126.1 300.84 125.49 301.51C124.5 302.64 124.5 302.7 125.43 303.43C125.99 303.82 127.42 304.27 128.74 304.5C132.54 305.12 134.25 305.96 135.96 308.05C136.07 308.18 136.62 308.84 137.61 310.02C136.88 310.59 136.48 310.91 136.4 310.98C135.74 311.48 135.07 312.67 134.85 313.62C134.69 314.64 133.37 316.55 131.88 318.19C129.35 320.89 129.24 321.12 129.51 323.65C129.79 326.07 130.12 326.52 132.65 328.44C136.07 331.03 137.11 332.27 137.88 334.3C138.21 335.14 138.82 335.82 139.26 335.82C139.76 335.82 140.53 336.66 141.02 337.62C141.52 338.63 142.13 339.59 142.29 339.76C143.01 340.38 144.16 343.2 145.04 346.58C145.71 349.17 146.26 350.24 146.97 350.35C147.85 350.52 151.32 352.94 153.86 355.08C154.24 355.42 156.23 355.98 158.27 356.32C161.74 356.94 161.9 357 162.51 358.91C163.11 360.83 163.22 360.88 166.36 361.17C169.39 361.45 169.67 361.56 170.38 363.25C171.16 365.05 172.37 365.67 172.75 364.49C172.86 364.21 173.69 364.55 174.57 365.33C176.55 367.08 177.05 367.14 177.05 365.67C177.05 364.04 179.36 363.19 180.02 364.55C180.35 365.33 180.02 365.95 178.7 367.31C177.71 368.26 176.66 369.05 176.44 369.05C176.17 369.05 175.95 369.67 175.95 370.4C175.95 371.19 175.73 371.98 175.4 372.15C174.52 372.71 174.79 374.69 175.84 375.02C178.15 375.81 179.25 376.66 178.98 377.39C178.81 377.84 179.14 378.29 179.8 378.46C180.41 378.63 180.91 379.08 180.91 379.47C180.91 379.87 181.4 380.83 182.01 381.61C183.27 383.25 183.44 384.82 182.34 384.82C181.13 384.82 180.79 385.78 181.51 387.19C182.12 388.32 182.12 388.43 181.35 387.75C180.63 387.19 180.35 387.19 180.02 387.7C179.8 388.09 180.13 388.77 180.79 389.39C181.46 389.89 182.01 390.63 182.01 391.02C182.01 392.2 180.3 395.02 179.64 394.91C177.43 394.63 176.88 395.98 178.48 397.67C179.47 398.68 179.47 398.68 175.67 399.81C174.29 400.26 173.96 400.65 173.85 402.29C173.74 403.3 173.8 405.05 174.02 406.12C174.29 407.64 174.57 407.98 175.4 407.75C176 407.58 176.77 407.86 177.16 408.37C178.15 409.61 183.44 412.99 184.38 412.99C184.82 412.99 185.59 413.83 186.08 414.9C187.02 416.93 188.23 418.17 188.95 417.95C189.5 417.78 190.54 418.62 194.57 422.45C197.49 425.33 198.15 426.9 199.91 435.24C200.41 437.72 201.07 440.76 201.4 442C201.67 443.24 202.11 445.38 202.33 446.79C202.88 450.05 203.38 451.29 204.76 452.87C205.36 453.55 205.64 454.11 205.36 454.11C203.6 454.11 200.46 447.01 199.3 440.48C198.92 438.06 198.04 435.01 197.38 433.72C196.33 431.63 190.88 425.61 188.89 424.37C188.56 424.14 187.13 423.02 185.81 421.83C183.93 420.14 183.55 419.58 184.21 419.19C184.87 418.79 184.87 418.51 184.21 417.21C183.16 415.24 182.17 415.58 179.97 418.85C178.21 421.5 178.15 421.72 178.15 427.3C178.15 430.4 177.82 436.25 177.38 440.31C176.94 444.31 176.17 452.31 175.67 458.05C175.18 463.8 174.41 471.69 173.96 475.57C173.19 482.33 173.3 484.53 174.35 484.53C174.63 484.53 174.85 484.47 174.9 484.36C174.9 484.3 175.07 483.12 175.18 481.77C175.34 480.19 176.06 478.5 176.99 477.26C177.88 476.14 178.65 474.9 178.81 474.45C179.14 473.38 184.76 478.84 184.76 480.19C184.76 480.92 184.27 481.15 182.28 481.15C180.91 481.15 179.8 480.87 179.8 480.59C179.8 480.25 179.09 480.02 178.21 480.02C176.55 480.02 175.95 480.81 175.95 482.95C175.95 483.63 175.34 485.26 174.57 486.56C173.63 488.25 173.25 489.43 173.52 490.39C173.69 491.12 173.47 494.5 173.03 497.88C172.53 501.2 172.04 505.48 171.82 507.34C171.27 513.03 168.84 527 167.08 534.83C166.2 538.94 165.15 543.68 164.88 545.37C164.54 547.06 164.05 549.76 163.77 551.34C163.28 554.1 158.32 563.39 156.01 566.04C155.35 566.71 153.8 567.78 152.48 568.46C152.32 568.54 151.51 568.91 150.06 569.59C150.72 570.91 151.09 571.64 151.16 571.78C152.21 573.98 152.26 573.98 154.3 573.36C155.9 572.85 156.34 572.85 156.56 573.42C156.89 574.54 158.98 576.35 159.86 576.35C160.3 576.35 160.74 575.84 160.91 575.22C161.24 573.98 162.01 573.81 163.94 574.6C164.65 574.88 165.87 575.28 166.75 575.45C168.18 575.78 168.24 575.95 168.24 579.33C168.24 582.26 167.96 583.22 166.58 585.36C164.6 588.4 164.54 588.96 166.14 590.09C168.35 591.73 169.89 591.27 170.82 588.74C171.87 586.04 173.69 585.53 173.3 588.06C173.03 589.98 173.74 590.6 177.32 591.56C178.87 591.95 180.35 592.51 180.74 592.8C181.13 593.13 181.62 593.19 181.95 593.02C182.23 592.85 183.16 593.08 183.99 593.53C184.87 593.98 185.86 594.37 186.14 594.37C186.47 594.37 187.68 595.05 188.84 595.84C190.88 597.25 191.21 597.3 195.5 596.96C195.8 596.94 197.31 596.81 200.02 596.57C200.25 597.96 200.38 598.73 200.41 598.88C200.68 600.68 201.07 601.3 202.22 601.75C202.99 602.03 205.03 603.84 206.8 605.69C209.49 608.68 209.99 609.02 210.6 608.23C211.09 607.61 211.92 607.5 213.85 607.72C216.16 607.95 216.66 607.84 218.58 606.26C219.74 605.3 220.9 604.51 221.06 604.51C221.28 604.51 222.71 604.96 224.31 605.53C226.52 606.31 227.51 607.1 228.72 608.96C229.55 610.26 231.09 612.17 232.08 613.24C234.23 615.61 236.1 615.78 240.78 614.09C245.24 612.51 248.38 612.57 249.98 614.37C251.52 616.06 252.46 616.12 254.33 614.6C255.38 613.81 256.04 613.64 256.76 613.98C257.31 614.31 260.72 614.6 264.36 614.71C264.8 614.72 267 614.8 270.97 614.93C271.07 613.99 271.12 613.46 271.13 613.36C271.24 612.45 270.91 611.16 270.42 610.37C269.76 609.36 269.7 608.74 270.14 607.95C270.42 607.33 270.69 606.31 270.69 605.69C270.69 604.06 272.51 603.72 274.66 605.08C275.65 605.69 276.97 606.2 277.58 606.2C278.24 606.2 279.67 606.71 280.88 607.33C282.1 607.95 283.69 608.46 284.46 608.46C286.94 608.46 292.89 610.99 293.06 612.12C293.33 614.03 296.09 614.76 298.18 613.47C300.11 612.23 302.86 613.3 305.12 616.23C306.22 617.69 307.27 619.55 307.44 620.4C307.88 622.71 309.86 622.37 310.58 619.89C310.8 619.16 311.13 618.65 311.35 618.71C311.57 618.76 312.28 618.59 313 618.37C313.88 618.09 314.6 618.2 315.26 618.82C315.81 619.33 317.57 619.89 319.11 620.12C322.36 620.51 323.58 621.81 322.58 623.89C321.32 626.54 321.32 628.06 322.58 628.96C323.24 629.47 324.24 629.86 324.73 629.86C325.28 629.86 327.1 630.42 328.81 631.1C331.67 632.23 332.11 632.56 333.11 635.04C333.66 636.51 334.65 637.86 335.2 638.03C336.85 638.59 339.27 637.8 341.75 636C343.35 634.82 344.34 634.42 345.28 634.7C345.99 634.87 346.77 634.76 346.99 634.37C347.21 634.03 347.76 633.86 348.25 634.03C348.8 634.14 350.07 634.42 351.17 634.59C352.27 634.82 354.26 635.83 355.58 636.9C356.9 637.97 358.83 639.16 359.88 639.49C361.47 640.06 361.86 640 362.47 639.16C363.13 638.25 363.24 638.25 364.45 639.1C365.11 639.61 366.27 640 366.93 640C367.97 640 368.19 639.66 368.19 638.42C368.19 636.11 370.4 634.14 372.55 634.54C373.81 634.82 374.58 634.59 375.8 633.52C376.62 632.79 378.11 632 378.99 631.78C379.87 631.55 380.7 631.21 380.86 630.99C381.03 630.76 382.46 630.71 384.06 630.87C386.48 631.1 387.14 631.38 387.58 632.45C388.25 633.97 388.69 634.09 390.28 633.18C391.27 632.68 391.33 632.51 390.61 631.66C390.17 631.16 389.62 630.14 389.46 629.52C389.24 628.85 388.36 628 387.42 627.61C384.72 626.42 384.61 625.8 385.22 613.3C385.49 607.05 385.6 601.3 385.44 600.68C385.05 599.22 386.04 595.05 387.53 591.73C390.12 585.92 397 578.66 401.36 577.14C402.68 576.68 403.61 576.74 405.32 577.36C407.52 578.09 407.58 578.09 408.9 576.52C411.88 572.91 415.13 569.59 415.68 569.59C416.67 569.59 422.18 565.59 424.55 563.17C427.47 560.24 431.93 558.21 434.96 558.43C437.27 558.6 437.33 558.66 437.33 560.52C437.33 563.45 439.09 564.46 445.31 565.14C448.18 565.42 451.92 565.53 453.58 565.36C456.83 565.02 458.75 565.7 459.86 567.5C460.3 568.24 460.3 568.63 459.69 568.97C458.59 569.7 459.36 571.16 461.12 571.9C462 572.23 464.43 572.57 466.52 572.63C468.67 572.74 470.98 572.97 471.64 573.25C472.86 573.64 472.97 573.53 472.8 572.07C472.58 569.98 473.24 568.97 475.55 567.73C475.68 567.66 476.3 567.32 477.43 566.71C478.35 567.83 478.87 568.45 478.97 568.57C479.85 569.59 480.51 570.88 480.57 571.39C480.57 573.36 481.94 573.92 487.18 574.04C491.47 574.09 492.41 573.98 493.62 572.97C495.44 571.5 495.77 571.56 496.87 573.19C497.48 574.21 497.59 574.88 497.2 575.56C496.82 576.23 496.87 576.85 497.26 577.53C497.7 578.26 497.59 578.83 496.87 579.95C496.38 580.8 496.05 581.64 496.21 581.87C496.32 582.09 498.03 582.26 499.96 582.26C501.89 582.21 503.76 582.43 504.14 582.71C504.58 583.05 505.08 583.05 505.52 582.66C506.02 582.21 506.68 582.54 508.06 584.01C510.15 586.15 510.59 586.32 511.08 585.08C511.47 584.01 513.07 583.95 513.07 585.02C513.07 586.15 514.33 587.05 516.1 587.16C516.92 587.28 517.75 587.61 517.86 588.01C518.03 588.4 518.47 588.74 518.85 588.74C519.35 588.74 519.57 589.3 519.51 590.26C519.4 591.44 519.79 591.95 520.94 592.57C522.32 593.25 522.65 593.25 523.42 592.51C523.97 592.01 524.97 591.78 525.79 591.95C527.5 592.29 528.33 591.33 527.39 590.15C526.84 589.47 526.89 589.3 527.94 589.3C528.6 589.3 529.59 589.87 530.14 590.54C530.97 591.61 531.3 591.73 531.85 591.16C533.01 589.98 535.1 590.26 535.1 591.56C535.1 592.23 534.72 592.68 534.22 592.68C532.68 592.68 533.72 594.03 535.54 594.43C537.53 594.82 538.08 594.37 537.58 592.63C537.36 591.95 537.58 590.94 538.08 590.15C539.18 588.46 541.93 588.23 544.8 589.64C547.11 590.77 548.21 590.37 548.43 588.35C548.6 586.82 548.82 586.71 552.4 586.2C554.55 585.87 556.31 585.3 556.47 584.91C556.75 584.06 557.96 584.01 559.34 584.91C560.22 585.47 560.55 585.36 561.65 583.95C562.37 583.05 562.92 581.87 562.97 581.42C562.97 580.97 563.31 580.01 563.69 579.28C564.57 577.59 564.08 576.12 562.7 576.52C562.15 576.63 561.32 576.57 560.94 576.29C560.44 575.95 560.39 575.78 560.83 575.78C561.98 575.78 565.29 571.67 565.62 569.87C565.95 568.12 566 568.07 569.09 568.18C571.95 568.29 572.34 568.18 573.77 566.55C574.6 565.59 575.31 564.4 575.31 563.9C575.31 563.39 575.7 562.77 576.2 562.6C576.75 562.38 576.91 561.87 576.75 561.25C576.31 559.84 578.34 557.81 579.28 558.77C580.16 559.67 581.37 559.62 581.37 558.66C581.37 557.48 583.14 556.97 583.69 558.04C584.24 558.94 585.56 559.17 586 558.38C586.17 558.15 586 557.19 585.67 556.24C585.17 554.89 585.23 554.32 586.06 553.08C586.55 552.24 587.38 551.56 587.82 551.56C588.26 551.56 589.31 550.77 590.13 549.82C591.12 548.75 591.84 548.29 592.06 548.69C592.61 549.59 594.04 549.42 594.04 548.46C594.04 547.34 596.03 546.38 597.46 546.83C598.78 547.22 599.55 546.32 599.55 544.13C599.55 543.28 599.83 542.44 600.1 542.27C600.43 542.1 600.65 542.44 600.65 543C600.65 543.62 600.98 544.41 601.42 544.75C602.09 545.31 602.42 545.14 603.13 544.01C603.74 543.11 604.62 542.55 605.39 542.55C605.48 542.55 605.92 542.55 606.71 542.55C605.89 540.66 605.43 539.6 605.34 539.39C603.63 535.51 603.63 535.34 605.28 534.04C606.05 533.42 606.82 532.35 607.04 531.68C607.21 531 608.48 529.31 609.8 528.02C611.12 526.66 612.22 525.09 612.22 524.58C612.22 524.07 612.72 523.23 613.32 522.66C614.81 521.37 614.81 518.55 613.32 517.76C612.5 517.31 612.28 516.81 612.55 515.85C612.88 514.33 612 512.13 611.01 512.13C610.62 512.13 609.85 512.64 609.25 513.2C608.59 513.76 606.88 514.55 605.34 514.95C596.58 517.03 597.35 516.98 596.3 515.57C595.75 514.83 594.92 514.38 594.26 514.44C593.66 514.55 592.45 514.1 591.62 513.37C590.74 512.69 589.75 512.13 589.36 512.13C588.97 512.13 588.37 511.74 587.98 511.29C587.6 510.84 586.77 510.44 586.06 510.44C585.39 510.44 584.4 509.93 583.8 509.26C583.08 508.41 582.36 508.19 581.26 508.41C579.94 508.69 579.61 508.47 578.84 506.89C578.34 505.93 577.19 504.19 576.36 503.12C575.48 502.05 574.76 500.86 574.76 500.53C574.76 500.13 574.43 499.74 573.99 499.57C572.84 499.12 573.55 496.92 575.09 496.3C576.86 495.68 576.75 495.23 574.49 492.42C573.44 491.12 572.56 489.82 572.56 489.54C572.56 489.32 573.22 488.25 574.1 487.23C576.91 483.8 578.18 481.66 577.85 480.81C577.35 479.46 579.61 477.6 581.43 477.88C583.58 478.22 583.91 477.54 582.53 475.57C581.87 474.67 581.37 473.49 581.37 472.98C581.37 472.47 581.1 471.57 580.82 470.95C580.44 470.22 580.44 469.55 580.77 468.87C581.21 468.02 580.99 467.46 579.5 466C577.9 464.42 577.46 464.25 575.26 464.53C573.22 464.81 572.39 464.59 570.03 463.18C569.83 463.07 568.88 462.5 567.16 461.49C567.19 459.46 567.21 458.34 567.22 458.11C567.22 454.22 566.5 452.98 564.24 452.98C562.92 452.98 562.64 452.76 562.64 451.63C562.64 450.9 562.26 450 561.76 449.6C561.05 448.93 561.1 448.7 562.48 447.58C563.31 446.84 564.52 446.22 565.12 446.22C565.73 446.22 566.72 445.83 567.27 445.38C568.21 444.65 568.54 444.7 570.08 445.66C571.07 446.28 572.17 446.79 572.61 446.79C573 446.79 574.65 445.32 576.25 443.58C578.95 440.59 579.39 440.37 581.59 440.31C583.58 440.31 584.24 440.03 585.28 438.73C586.33 437.32 586.39 436.87 585.89 435.13C585.34 433.32 585.45 432.93 586.66 431.3C587.43 430.28 588.2 428.54 588.37 427.47C588.59 425.83 588.48 425.44 587.49 425.1C586.83 424.93 584.68 423.07 582.7 421.1C582.45 420.85 581.24 419.61 579.06 417.38C578.83 414.98 578.7 413.65 578.67 413.38C578.4 409.78 578.18 409.33 577.19 409.16C576.53 409.05 575.53 408.48 574.98 407.86C574.49 407.3 573.77 406.79 573.39 406.79C572.01 406.79 570.41 404.2 570.08 401.44C569.92 399.86 569.97 398.34 570.19 398.06C570.85 397.22 573.55 396.09 574.93 396.09C576.8 396.09 578.4 394.68 579.67 391.98C581.15 388.82 581.1 387.7 579.39 384.43C577.35 380.6 575.53 378.74 574.65 379.64C574.27 380.04 573.83 380.32 573.66 380.32C573.28 380.32 573.39 378.06 573.94 376.83C574.49 375.42 573.99 374.91 571.29 374.12C571.13 374.08 570.32 373.85 568.87 373.45C569.17 371.72 569.33 370.76 569.36 370.57C569.64 368.94 570.25 367.25 570.69 366.74C571.73 365.56 571.68 362.63 570.58 361.73C569.09 360.43 568.65 359.03 569.36 357.84C569.86 357 569.81 356.6 569.03 355.81C568.21 354.91 567.33 354.86 562.09 355.14C556.42 355.42 555.98 355.53 552.29 357.67C548.98 359.59 548.27 359.81 547.72 359.14C546.78 357.96 544.69 358.18 543.75 359.59C543.31 360.32 542.43 361.45 541.82 362.18C540.83 363.31 540.78 363.64 541.44 365C542.92 368.15 542.92 368.94 541.6 369.67C540.89 370.01 539.62 370.97 538.79 371.76C537.53 373 536.75 373.22 533.72 373.28C530.58 373.33 530.14 373.22 530.14 372.32C530.14 371.7 529.87 370.74 529.59 370.18C529.1 369.22 529.32 369 531.74 368.26C536.2 366.91 536.81 366.46 536.09 364.83C535.6 363.76 535.71 363.08 536.7 361.17C538.24 358.12 538.19 356.66 536.42 355.25C533.95 353.22 534.5 348.83 537.69 345.28C538.41 344.44 538.52 343.99 538.02 343.2C537.47 342.3 537.91 341.62 541.05 338.52C543.09 336.49 546.34 333.73 548.32 332.38C552.62 329.4 552.84 329.17 552.51 327.37C552.4 326.58 552.56 324.72 552.89 323.26C553.33 321.34 553.33 320.04 552.89 318.97C552.07 316.67 553.33 315.31 558.18 313.62C563.09 311.93 565.4 309.91 565.4 307.31C565.4 306.08 565.67 305.46 566.39 305.29C567.82 304.89 576.86 294.58 577.3 292.78C577.46 291.94 578.18 291.03 578.89 290.75C579.61 290.47 580.38 289.91 580.66 289.46C580.88 289.06 581.54 288.56 582.09 288.33C583.36 287.88 583.3 287.09 581.87 285.63C580.88 284.61 580.33 284.5 577.41 284.84C577.18 284.86 576.06 285 574.05 285.23C574.77 284.19 575.18 283.6 575.26 283.49C575.92 282.53 577.35 281.06 578.34 280.28C579.94 279.04 580.16 278.64 579.72 277.46C579.34 276.45 579.39 275.99 580.16 275.6C580.71 275.26 581.48 275.26 581.92 275.54C582.36 275.83 583.91 275.88 585.39 275.71C585.57 275.69 586.47 275.58 588.09 275.38C587.96 276.49 587.89 277.11 587.87 277.23C587.71 278.87 587.93 279.21 589.64 280.16C591.29 281.12 591.78 281.18 593.55 280.61C595.09 280.05 595.81 280.05 596.8 280.61C597.84 281.18 598.23 281.06 599.61 279.71C600.49 278.87 601.2 277.8 601.2 277.4C601.2 277.01 601.7 276.67 602.31 276.67C603.52 276.67 605.61 273.69 605.61 272.05C605.61 271.49 606.27 270.64 607.04 270.14C608.25 269.29 608.42 268.9 608.09 267.15C607.87 266.02 607.1 264.45 606.33 263.6C605.11 262.31 604.95 261.8 605.34 259.94C605.56 258.76 605.83 256.62 605.94 255.21C606.05 253.8 606.38 251.94 606.71 251.1C606.99 250.25 607.26 248.62 607.26 247.49C607.26 246.31 607.87 244.22 608.64 242.76C610.29 239.55 610.35 237.86 608.92 235.94C606.82 233.24 608.09 226.48 611.67 220.9C612.22 220.12 612.77 218.82 612.99 217.97C613.16 217.07 614.09 215.27 615.03 213.92C616.63 211.61 616.68 211.38 615.86 210.09C615.09 208.85 615.09 208.51 616.46 205.13C617.51 202.54 618 200.34 618.06 197.75C618.17 193.3 618.61 192.29 622.74 187.89C624.5 185.98 626.21 183.73 626.54 182.94C626.87 182.04 627.48 181.47 628.2 181.47C628.8 181.47 629.57 180.97 629.96 180.35C630.34 179.73 630.95 179.22 631.34 179.22C632.44 179.22 634.25 176.85 634.25 175.39C634.25 173.53 636.73 168.63 638.77 166.49C639.65 165.48 640.2 164.57 639.93 164.4C639.65 164.24 638.06 163.9 636.4 163.73C634.75 163.5 632.82 162.88 632.05 162.38C629.85 160.8 625.28 158.72 623.79 158.6C623.02 158.55 622.08 158.77 621.75 159.05C621.25 159.45 620.65 159.39 619.82 158.83C618.89 158.21 617.56 158.04 615.09 158.26C611.89 158.49 611.56 158.38 610.29 157.03C609.3 155.9 608.59 155.62 607.65 155.84C606.6 156.12 606.11 155.84 605.34 154.6C604.78 153.76 604.18 152.29 603.96 151.34C603.74 150.1 603.3 149.59 602.31 149.48C601.53 149.36 600.71 149.03 600.38 148.74C599.44 147.84 597.46 148.18 597.07 149.36C596.91 149.98 596.19 150.77 595.53 151.11C594.87 151.51 594.1 152.12 593.88 152.52C593.33 153.53 587.82 153.14 586.06 151.96C584.4 150.83 583.25 150.83 582.81 151.9C582.25 153.36 581.65 152.8 580.99 150.32C580.44 148.24 580 147.79 577.68 146.77C576.25 146.15 574.16 145.65 573.11 145.65C571.29 145.7 571.18 145.82 571.29 147.51C571.4 148.52 571.07 149.53 570.63 149.93C570.08 150.43 569.81 150.43 569.81 149.98C569.81 149.65 568.92 149.36 567.82 149.36C565.95 149.36 565.89 149.31 566.22 147.73C566.5 146.38 566.34 146.04 565.51 145.76C564.9 145.53 564.24 144.75 564.08 143.96C563.86 143.17 562.7 141.42 561.49 140.07C560.11 138.55 559.17 136.86 558.95 135.62C558.79 134.49 558.46 133.42 558.18 133.25C557.91 133.09 557.25 131.9 556.7 130.55C555.43 127.62 551.79 125.48 549.09 126.04C547.94 126.27 546.67 125.93 544.74 124.86C541.44 123.06 538.79 123.28 535.49 125.48C534.28 126.27 532.51 127.06 531.52 127.23C530.03 127.45 529.59 127.28 528.55 125.76C527.61 124.47 526.89 124.02 525.63 124.02C524.36 124.02 523.48 123.51 522.43 122.27C521.11 120.58 520.78 120.47 516.76 120.3C513.07 120.13 512.41 120.3 511.86 121.2C511.36 121.93 510.75 122.16 509.76 121.93C508.83 121.76 508.06 121.99 507.61 122.55C506.73 123.62 504.86 123.73 504.58 122.72C502.88 116.24 502.55 115.68 500.67 114.72C499.52 114.21 498.19 113.99 497.48 114.21C496.49 114.5 496.38 114.44 496.98 113.82C497.97 112.75 497.81 112.07 495.94 110.05C494.56 108.58 494.12 108.36 493.24 108.81C491.69 109.65 489.38 108.3 486.9 105.15C485.75 103.74 484.48 102.61 484.04 102.61C483.65 102.61 482.61 102.1 481.72 101.43C480.24 100.36 480.07 100.3 478.09 101.15C476.66 101.77 475.78 101.88 475.33 101.48C474.67 100.92 474.67 97.15 475.33 93.82C475.78 91.8 474.51 89.37 472.75 88.75C471.97 88.53 471.81 88.13 472.08 87.51C472.3 86.95 472.91 84.81 473.46 82.73C473.96 80.64 474.67 78.61 474.95 78.22C475.28 77.83 475.67 76.59 475.89 75.46C476.27 73.43 476.22 73.38 474.23 72.81C472.47 72.31 471.92 72.42 470.76 73.38C467.95 75.63 465.69 78.78 465.69 80.53C465.69 83.23 464.59 85.71 463.44 85.71C462.17 85.71 459.41 87.06 457.49 88.58C455.78 89.94 454.02 89.94 449.83 88.47C447.02 87.51 446.08 87.4 444.65 87.91C442.34 88.75 440.58 87.57 440.25 85.04C439.97 83.46 440.25 82.9 441.79 81.49C441.91 81.37 442.54 80.81 443.66 79.8C443.1 78.17 442.79 77.27 442.72 77.09C441.95 75.01 441.46 74.45 440.52 74.45C439.42 74.45 439.36 74.28 439.8 72.98C440.14 72.19 440.36 71.07 440.36 70.45C440.36 69.83 440.96 68.47 441.73 67.46C443.39 65.21 443.44 64.76 442.01 63.46C441.13 62.67 440.74 62.56 440.25 63.07C439.31 64.02 438.81 63.91 438.43 62.67C438.26 62.05 437.05 60.7 435.73 59.57C435.57 59.44 434.76 58.76 433.3 57.55C431.55 58.09 430.58 58.39 430.39 58.45C427.74 59.29 427.36 59.29 425.98 58.45C425.15 57.94 423.5 57.55 422.29 57.55C420.52 57.55 419.81 57.88 418.93 59.07C417.77 60.64 417.77 60.64 416.89 59.52C416.34 58.79 416.12 57.72 416.28 56.42C416.67 53.55 415.62 49.6 414.02 47.8C412.92 46.62 412.1 46.28 410.22 46.28C408.08 46.28 407.86 46.17 407.86 44.87C407.86 43.3 406.26 42.9 405.16 44.25C404.83 44.65 403.72 45.15 402.73 45.38C400.58 45.83 397.44 44.25 397.17 42.62C397.06 42 396.67 39.97 396.29 38.11C395.9 36.25 395.63 33.83 395.68 32.7C395.74 31.3 395.3 30.11 394.25 28.65C393.37 27.58 392.27 25.89 391.77 24.93C390.61 22.85 389.35 22.23 387.97 23.07C387.42 23.47 386.37 23.75 385.77 23.75C383.89 23.75 379.76 26.45 379.76 27.64C379.76 29.44 378.33 30.17 376.9 29.16C376.24 28.65 375.08 28.25 374.42 28.25C373.7 28.25 373.15 27.92 373.15 27.47C373.15 27.07 372.77 26.34 372.27 25.95C371.77 25.49 370.78 24.26 370.07 23.13C369.24 21.78 368.25 20.93 367.15 20.65C364.56 20.09 364.28 19.47 364.28 13.89C364.28 12.93 364.45 11.36 364.67 10.34C364.94 8.76 364.78 8.2 363.51 6.85C362.63 5.89 361.91 4.43 361.75 2.96C361.36 0.15 360.7 -0.42 358.55 0.26C357.67 0.54 356.24 1.16 355.41 1.61ZM573.44 185.98C573.28 185.98 573 185.7 572.84 185.42C572.67 185.08 572.78 184.85 573.06 184.85C573.39 184.85 573.66 185.08 573.66 185.42C573.66 185.7 573.55 185.98 573.44 185.98ZM17.3 211.61C17.03 211.78 16.75 212.57 16.75 213.24C16.75 214.43 17.03 214.59 19.01 214.59C20.44 214.65 21.32 214.37 21.54 213.81C21.71 213.36 22.09 213.02 22.37 213.02C22.7 213.02 22.76 213.47 22.59 213.98C22.37 214.48 22.54 215.1 22.92 215.33C24.19 216.12 20.55 217.13 19.18 216.34C18.46 216 17.3 215.83 16.53 215.95C15.76 216.12 15.26 216.06 15.37 215.78C15.93 214.93 14.49 214.59 13.61 215.33C12.84 216 12.79 215.89 13.17 214.14C13.39 213.07 13.94 211.72 14.44 211.16C15.32 210.14 17.85 209.81 17.85 210.71C17.85 211.05 17.63 211.44 17.3 211.61ZM447.13 218.43C446.97 218.26 446.97 217.75 447.13 217.24C447.52 216.34 449.72 216.06 449.72 216.96C449.72 217.58 447.52 218.88 447.13 218.43ZM101.25 270.36C100.76 272.39 100.76 272.39 98.83 271.6C97.51 271.04 97.01 271.04 96.35 271.6C95.69 272.16 95.47 272.05 95.03 270.98C94.48 269.35 95.3 267.83 96.9 267.49C97.51 267.38 98.06 267.21 98.17 267.15C98.28 267.15 99.05 267.49 99.99 267.94C101.36 268.67 101.53 269.07 101.25 270.36ZM91.67 270.47C91.67 270.14 92.22 269.91 92.93 269.91C93.93 269.91 93.98 270.02 93.32 270.47C92.27 271.21 91.67 271.21 91.67 270.47ZM137.33 291.03C135.68 290.7 135.29 290.19 136.73 290.19C137.33 290.19 137.99 290.42 138.21 290.7C138.38 291.03 137.99 291.15 137.33 291.03ZM129.13 291.88C129.13 291.6 129.57 291.26 130.12 291.15C131.55 290.75 133.75 290.7 133.37 291.09C132.82 291.65 129.13 292.33 129.13 291.88ZM524.25 409.1C523.86 409.5 523.59 408.43 523.37 406.12C523.2 404.15 522.93 402.06 522.71 401.44C522.38 400.37 522.38 400.37 523.2 401.39C523.64 401.95 524.19 403.81 524.42 405.5C524.64 407.3 524.53 408.82 524.25 409.1ZM544.85 492.08C545.13 491.23 545.24 491.29 545.68 492.13C546.01 492.64 546.06 493.2 545.95 493.37C545.35 493.94 544.52 492.92 544.85 492.08ZM441.79 559.45C441.62 559.45 441.35 559.17 441.18 558.88C441.02 558.55 441.13 558.32 441.4 558.32C441.73 558.32 442.01 558.55 442.01 558.88C442.01 559.17 441.9 559.45 441.79 559.45ZM444.93 562.83C444.21 562.83 444.21 562.66 444.76 561.98C445.15 561.53 445.81 561.14 446.25 561.14C446.97 561.14 446.97 561.31 446.41 561.98C446.03 562.43 445.37 562.83 444.93 562.83ZM410.5 569.59C410.11 569.59 410.5 569.08 411.38 568.52C412.26 567.9 413.2 567 413.47 566.55C413.75 566.04 414.25 565.64 414.63 565.64C415.02 565.64 414.36 566.55 413.25 567.62C412.1 568.69 410.89 569.59 410.5 569.59ZM385.27 591.84C385 591.67 384.72 591.22 384.72 590.94C384.72 590.6 385 590.54 385.27 590.71C385.6 590.88 385.82 591.33 385.82 591.61C385.82 591.95 385.6 592.01 385.27 591.84ZM383.23 607.1C383.51 608.68 382.19 609.69 381.41 608.46C380.97 607.72 382.96 604.01 383.84 603.95C384.11 603.95 384 604.34 383.62 604.79C383.23 605.24 383.07 606.31 383.23 607.1ZM333.82 630.31C334.04 629.97 334.32 630.03 334.65 630.48C334.87 630.87 334.98 631.33 334.87 631.44C334.43 631.89 333.49 630.87 333.82 630.31Z" id="acfrjIuni"></path><path d="M1349.6 825C1350.67 825 1351.2 824.34 1350.8 823.67C1350.4 822.87 1349.47 822.34 1348.67 822.34C1348 822.34 1347.47 822.87 1347.47 823.67C1347.47 824.34 1348.4 825 1349.6 825Z" id="alvoF9rw"></path><path d="M1326.68 832.33C1323.08 831.67 1321.88 832.33 1318.01 836.6C1315.48 839.4 1312.02 844.6 1310.15 848.19C1308.28 851.79 1305.75 855.79 1304.55 857.12C1302.29 859.52 1298.82 870.05 1299.89 871.12C1300.15 871.52 1303.09 866.72 1306.15 860.46C1313.62 845.66 1322.28 835.67 1327.61 835.67C1330.54 835.67 1333.34 834.07 1337.87 829.67C1341.74 826.07 1343.34 823.67 1342 823.67C1340.94 823.67 1337.87 825.8 1335.34 828.47C1331.48 832.47 1330.14 833 1326.68 832.33Z" id="hf1j5f5xS"></path><path d="M1372.93 833C1377.72 833 1390.52 839.26 1389.45 841C1389.05 841.8 1387.85 842.33 1386.79 842.33C1382.66 842.33 1383.99 844.46 1388.25 844.6C1390.79 844.73 1393.18 844.2 1393.58 843.53C1394.65 841.8 1390.52 835.67 1388.25 835.67C1387.32 835.67 1385.05 834.6 1383.32 833.13C1380.26 830.74 1369.73 828.6 1368.26 829.94C1366.79 831.53 1369.06 833 1372.93 833Z" id="a1ThewisuY"></path><path d="M1299.62 879.38C1300.42 879.12 1301.09 878.32 1301.09 877.65C1301.09 876.98 1300.42 876.18 1299.62 875.92C1298.82 875.65 1298.16 876.45 1298.16 877.65C1298.16 878.85 1298.82 879.65 1299.62 879.38Z" id="b1tg8mJqFg"></path><path d="M1681.74 1415.7C1681.87 1418.77 1681.47 1421.83 1680.8 1422.63C1678.94 1425.03 1677.6 1439.03 1679.2 1440.09C1682.54 1442.09 1679.47 1457.55 1675.47 1460.08C1674.54 1460.48 1671.87 1459.15 1669.21 1456.89C1665.74 1453.82 1663.34 1452.75 1659.34 1452.75C1654.81 1452.75 1653.48 1453.55 1649.22 1458.62C1644.28 1464.62 1640.82 1466.61 1633.36 1467.81C1625.76 1469.15 1616.7 1473.94 1615.5 1477.14C1614.43 1479.68 1613.5 1480.21 1610.96 1479.81C1608.43 1479.28 1607.23 1479.94 1605.9 1482.34C1605.1 1483.94 1602.83 1487.14 1601.23 1489.14C1599.1 1491.67 1598.3 1493.94 1598.84 1495.94C1599.77 1499.8 1597.24 1506.07 1594.7 1506.07C1592.3 1506.07 1584.84 1513.93 1584.71 1516.46C1584.71 1517.53 1585.77 1517.79 1587.91 1517.26C1590.44 1516.73 1591.51 1517.39 1593.77 1521.26C1595.37 1523.92 1597.24 1526.06 1598.04 1526.06C1600.3 1526.06 1599.5 1530.06 1597.1 1530.86C1586.31 1534.32 1585.51 1535.39 1587.51 1542.72C1589.51 1550.05 1594.84 1554.45 1600.3 1553.38C1604.3 1552.71 1604.83 1552.98 1606.83 1557.11C1606.98 1557.41 1607.74 1558.92 1609.1 1561.64C1604.62 1566.12 1602.13 1568.61 1601.63 1569.11C1595.77 1575.1 1594.44 1577.1 1594.97 1579.9C1595.64 1582.97 1596.3 1583.37 1600.83 1583.37C1603.77 1583.37 1607.23 1582.7 1608.57 1581.77C1611.9 1579.77 1615.36 1582.3 1615.36 1586.97C1615.36 1591.1 1611.9 1599.36 1610.03 1599.36C1609.23 1599.36 1608.03 1600.69 1607.37 1602.29C1606.57 1604.03 1605.37 1606.43 1604.43 1607.62C1601.9 1611.22 1604.83 1613.62 1609.36 1611.62C1612.16 1610.29 1612.96 1610.42 1613.5 1612.02C1613.9 1613.09 1617.49 1614.96 1621.49 1616.29C1625.49 1617.49 1628.69 1618.82 1628.69 1619.35C1628.69 1620.95 1621.36 1627.08 1618.43 1628.02C1616.16 1628.68 1615.36 1629.88 1615.36 1632.68C1615.36 1640.28 1635.75 1653.61 1645.62 1652.41C1648.42 1652.01 1650.02 1652.41 1650.02 1653.47C1650.02 1654.27 1650.81 1655.74 1651.88 1656.67C1652.95 1657.47 1654.01 1659.47 1654.28 1661.07C1654.81 1664.4 1662.68 1670.13 1665.48 1669.07C1667.74 1668.27 1668.01 1664.54 1665.88 1662.4C1664.94 1661.47 1665.61 1659.6 1668.54 1656.27C1670.81 1653.74 1672.67 1650.14 1672.67 1648.41C1672.67 1646.54 1674.54 1643.34 1677.34 1640.68C1682.54 1635.61 1682.27 1633.48 1676.54 1634.68C1674.41 1635.21 1672.67 1634.95 1672.67 1634.28C1672.67 1632.68 1677.2 1628.68 1679.07 1628.68C1679.87 1628.68 1681.6 1627.22 1683.07 1625.35C1685.33 1622.42 1685.87 1618.95 1686.67 1599.76C1687.6 1577.9 1687.73 1577.24 1691.6 1571.64C1693.73 1568.44 1695.2 1564.98 1694.8 1563.64C1694.4 1562.18 1695.46 1560.58 1698.4 1558.71C1705.59 1554.05 1705.99 1552.31 1704.53 1522.06C1702.93 1484.34 1702.53 1481.94 1697.06 1471.68C1696.74 1471.08 1695.14 1468.11 1692.26 1462.75C1693.7 1455.31 1694.5 1451.18 1694.66 1450.35C1696.66 1439.83 1696.8 1436.49 1695.46 1427.03C1692.93 1409.44 1691.73 1406.11 1688.13 1406.11C1686.4 1406.11 1684.27 1407.04 1683.34 1408.1C1682.4 1409.3 1681.6 1412.64 1681.74 1415.7Z" id="a1ON0Ew6pi"></path><path d="M367.38 321.53C369.32 323.47 369.32 326.66 367.38 328.59C366.67 329.3 361.02 334.95 360.32 335.66C358.38 337.6 355.19 337.6 353.26 335.66C350.94 333.33 339.33 321.71 318.45 300.78L290.14 329.09C311.06 350.02 322.68 361.65 325.01 363.97C326.95 365.91 326.95 369.1 325.01 371.04C324.3 371.74 318.65 377.39 317.95 378.1C316.01 380.04 312.82 380.04 310.89 378.1C308.56 375.77 296.94 364.12 276.01 343.16C266.11 353.06 260.62 358.56 259.52 359.66C248.7 370.47 243.52 385.35 245.14 400.54C245.44 403.19 246.92 416.44 249.58 440.29C224.68 465.2 210.85 479.03 208.08 481.8C206.15 483.73 206.15 486.92 208.08 488.86C208.79 489.57 214.44 495.22 215.14 495.92C217.08 497.86 220.27 497.86 222.21 495.92C224.97 493.16 238.78 479.35 263.64 454.48C287.49 457.14 300.74 458.62 303.39 458.92C318.32 460.54 333.32 455.54 344.26 444.54C351.84 436.96 389.73 399.06 457.93 330.84L373.13 246.02L332.57 286.65C353.46 307.58 365.06 319.21 367.38 321.53ZM475.68 178.83C473.74 176.89 470.56 176.89 468.62 178.83C467.91 179.54 462.26 185.19 461.56 185.89C459.62 187.83 459.62 191.02 461.56 192.96C462.74 194.14 468.63 200.03 479.24 210.65L450.93 238.96L415.56 203.58C409.19 197.21 405.65 193.66 404.94 192.96C403 191.02 399.81 191.02 397.88 192.96C395.76 195.07 378.81 212.03 376.69 214.15C374.75 216.08 374.75 219.27 376.69 221.21C377.4 221.92 380.94 225.46 387.32 231.83L472.12 316.78C478.49 323.16 482.04 326.7 482.74 327.41C484.68 329.34 487.87 329.34 489.81 327.41C491.92 325.28 508.87 308.28 510.99 306.15C512.93 304.22 512.93 301.03 510.99 299.09C507.93 296.03 492.62 280.71 465.06 253.15L493.37 224.83C503.98 235.45 509.87 241.34 511.05 242.52C512.99 244.46 516.18 244.46 518.11 242.52C518.82 241.82 524.47 236.17 525.18 235.46C527.11 233.46 527.11 230.33 525.18 228.33C515.28 218.43 480.63 183.78 475.68 178.83Z" id="a1j6Hmzo2Q"></path></defs><g><g><g><use xlink:href="#acfrjIuni" opacity="1" fill="#0055a4" fill-opacity="1"></use><g><use xlink:href="#acfrjIuni" opacity="1" fill-opacity="0" stroke="#000000" stroke-width="1" stroke-opacity="0"></use></g></g><g><use xlink:href="#alvoF9rw" opacity="1" fill="#000000" fill-opacity="1"></use><g><use xlink:href="#alvoF9rw" opacity="1" fill-opacity="0" stroke="#000000" stroke-width="1" stroke-opacity="0"></use></g></g><g><use xlink:href="#hf1j5f5xS" opacity="1" fill="#000000" fill-opacity="1"></use><g><use xlink:href="#hf1j5f5xS" opacity="1" fill-opacity="0" stroke="#000000" stroke-width="1" stroke-opacity="0"></use></g></g><g><use xlink:href="#a1ThewisuY" opacity="1" fill="#000000" fill-opacity="1"></use><g><use xlink:href="#a1ThewisuY" opacity="1" fill-opacity="0" stroke="#000000" stroke-width="1" stroke-opacity="0"></use></g></g><g><use xlink:href="#b1tg8mJqFg" opacity="1" fill="#000000" fill-opacity="1"></use><g><use xlink:href="#b1tg8mJqFg" opacity="1" fill-opacity="0" stroke="#000000" stroke-width="1" stroke-opacity="0"></use></g></g><g><use xlink:href="#a1ON0Ew6pi" opacity="1" fill="#000000" fill-opacity="1"></use><g><use xlink:href="#a1ON0Ew6pi" opacity="1" fill-opacity="0" stroke="#000000" stroke-width="1" stroke-opacity="0"></use></g></g><g><use xlink:href="#a1j6Hmzo2Q" opacity="1" fill="#ffffff" fill-opacity="1"></use><g><use xlink:href="#a1j6Hmzo2Q" opacity="1" fill-opacity="0" stroke="#000000" stroke-width="1" stroke-opacity="0"></use></g></g></g></g></svg>